<?xml version="1.0" encoding="UTF-8" standalone="no"?>
<svg
   width="269"
   height="53"
   viewBox="0 0 269 53"
   fill="none"
   version="1.1"
   id="svg6"
   sodipodi:docname="swift-airline.svg"
   inkscape:version="1.2 (dc2aedaf03, 2022-05-15)"
   xmlns:inkscape="http://www.inkscape.org/namespaces/inkscape"
   xmlns:sodipodi="http://sodipodi.sourceforge.net/DTD/sodipodi-0.dtd"
   xmlns="http://www.w3.org/2000/svg"
   xmlns:svg="http://www.w3.org/2000/svg">
  <defs
     id="defs10" />
  <sodipodi:namedview
     id="namedview8"
     pagecolor="#ffffff"
     bordercolor="#666666"
     borderopacity="1.0"
     inkscape:showpageshadow="2"
     inkscape:pageopacity="0.0"
     inkscape:pagecheckerboard="0"
     inkscape:deskcolor="#d1d1d1"
     showgrid="false"
     inkscape:zoom="4.66171"
     inkscape:cx="107.57855"
     inkscape:cy="26.706938"
     inkscape:window-width="1920"
     inkscape:window-height="1018"
     inkscape:window-x="-6"
     inkscape:window-y="-6"
     inkscape:window-maximized="1"
     inkscape:current-layer="svg6" />
  <path
     d="M 19,6 24.1317,20.9631 38,26.5 24.1317,32.0369 19,47 13.8683,32.0369 0,26.5 13.8683,20.9631 Z"
     fill="#63c5da"
     id="path2" />
  <path
     d="m 52.677,34.783 c -0.748,0 -1.4667,-0.0917 -2.156,-0.275 -0.6893,-0.1907 -1.3017,-0.4767 -1.837,-0.858 -0.528,-0.3813 -0.9423,-0.8617 -1.243,-1.441 -0.3007,-0.5793 -0.44,-1.2613 -0.418,-2.046 h 2.772 c 0.0367,0.5353 0.1943,0.9863 0.473,1.353 0.286,0.3667 0.66,0.6453 1.122,0.836 0.4693,0.1907 0.9973,0.286 1.584,0.286 0.6307,0 1.2137,-0.088 1.749,-0.264 0.5353,-0.176 0.9753,-0.4327 1.32,-0.77 0.352,-0.3373 0.5647,-0.7517 0.638,-1.243 0.0587,-0.4327 -0.0037,-0.7993 -0.187,-1.1 -0.176,-0.3007 -0.4473,-0.5463 -0.814,-0.737 -0.3667,-0.198 -0.8067,-0.3557 -1.32,-0.473 l -2.728,-0.638 c -1.1293,-0.242 -1.98,-0.7113 -2.552,-1.408 -0.572,-0.6967 -0.781,-1.6243 -0.627,-2.783 0.132,-0.9607 0.5023,-1.7967 1.111,-2.508 0.6087,-0.7187 1.3787,-1.2723 2.31,-1.661 0.9313,-0.396 1.9433,-0.594 3.036,-0.594 1.2027,0 2.2073,0.2273 3.014,0.682 0.814,0.4547 1.4153,1.045 1.804,1.771 0.3887,0.7187 0.5537,1.4777 0.495,2.277 h -2.717 c 0.022,-0.6307 -0.088,-1.133 -0.33,-1.507 -0.242,-0.374 -0.5867,-0.6417 -1.034,-0.803 -0.44,-0.1613 -0.946,-0.242 -1.518,-0.242 -0.5573,0 -1.078,0.0917 -1.562,0.275 -0.4767,0.176 -0.8727,0.4363 -1.188,0.781 -0.308,0.3447 -0.495,0.7553 -0.561,1.232 -0.066,0.5133 0.044,0.9313 0.33,1.254 0.286,0.3153 0.8617,0.583 1.727,0.803 l 2.662,0.638 c 0.8507,0.176 1.518,0.44 2.002,0.792 0.484,0.352 0.8323,0.7553 1.045,1.21 0.2127,0.4473 0.33,0.9057 0.352,1.375 0.0293,0.4693 0.0147,0.9167 -0.044,1.342 -0.11,0.8287 -0.462,1.5803 -1.056,2.255 -0.594,0.6747 -1.375,1.21 -2.343,1.606 -0.968,0.3887 -2.0717,0.583 -3.311,0.583 z m 11.3456,-0.22 -1.804,-11.374 h 2.365 l 1.111,7.821 h 0.11 l 3.333,-7.821 h 1.914 l 1.111,7.81 h 0.11 l 3.311,-7.81 h 2.387 l -5.137,11.374 h -2.233 l -1.122,-7.579 -3.267,7.579 z m 14.5479,0 1.606,-11.374 h 2.541 l -1.595,11.374 z m 1.848,-13.365 0.352,-2.53 h 2.618 l -0.352,2.53 z m 5.2786,13.365 1.375,-9.482 h -2.134 l 0.286,-1.892 h 2.123 l 0.253,-1.694 c 0.1393,-0.9093 0.4877,-1.6097 1.045,-2.101 0.5573,-0.4913 1.298,-0.737 2.222,-0.737 h 2.321 l -0.264,1.826 h -1.496 c -0.4253,0 -0.7333,0.1137 -0.924,0.341 -0.1833,0.22 -0.3117,0.5683 -0.385,1.045 l -0.187,1.32 h 2.497 l -0.286,1.892 h -2.442 l -1.386,9.482 z m 11.8042,0.088 c -0.88,0 -1.5437,-0.1173 -1.991,-0.352 -0.4473,-0.242 -0.7333,-0.583 -0.858,-1.023 -0.1247,-0.44 -0.1467,-0.9643 -0.066,-1.573 l 0.968,-6.622 h -1.771 l 0.286,-1.892 h 1.837 l 0.946,-3.377 h 2.112 l -0.484,3.366 h 2.4417 l -0.286,1.903 h -2.4417 l -0.935,6.468 c -0.0733,0.506 -0.0293,0.8287 0.132,0.968 0.1687,0.1393 0.4473,0.209 0.836,0.209 h 1.342 l -0.242,1.694 c -0.154,0.0587 -0.3777,0.11 -0.671,0.154 -0.286,0.0513 -0.671,0.077 -1.155,0.077 z m 8.5357,-0.088 7.821,-15.906 h 2.827 l 3.146,15.906 h -2.629 l -0.759,-3.993 h -5.797 l -1.958,3.993 z m 5.566,-6.369 h 4.532 l -1.232,-6.93 z m 10.731,6.369 1.606,-11.374 h 2.541 l -1.595,11.374 z m 1.848,-13.365 0.352,-2.53 h 2.618 l -0.352,2.53 z m 4.088,13.365 1.606,-11.374 h 2.541 l -0.352,2.464 c 0.257,-0.5647 0.576,-1.045 0.957,-1.441 0.389,-0.4033 0.822,-0.7113 1.298,-0.924 0.477,-0.2127 0.983,-0.319 1.518,-0.319 0.125,0 0.242,0.0073 0.352,0.022 0.11,0.0147 0.195,0.0403 0.253,0.077 l -0.363,2.563 c -0.073,-0.0367 -0.168,-0.0623 -0.286,-0.077 -0.117,-0.0147 -0.22,-0.022 -0.308,-0.022 -0.711,-0.0587 -1.323,0 -1.837,0.176 -0.513,0.1687 -0.92,0.4437 -1.221,0.825 -0.3,0.3813 -0.491,0.8543 -0.572,1.419 l -0.935,6.611 z m 11.772,0.165 c -0.711,0 -1.268,-0.0917 -1.672,-0.275 -0.396,-0.1833 -0.678,-0.429 -0.847,-0.737 -0.168,-0.308 -0.26,-0.6527 -0.275,-1.034 -0.007,-0.3887 0.015,-0.7847 0.066,-1.188 l 1.947,-13.277 h 2.596 l -1.903,12.969 c -0.066,0.4913 -0.025,0.8727 0.121,1.144 0.154,0.2713 0.448,0.429 0.88,0.473 l 0.539,0.022 -0.253,1.683 c -0.205,0.0587 -0.414,0.11 -0.627,0.154 -0.205,0.044 -0.396,0.066 -0.572,0.066 z m 3.755,-0.165 1.606,-11.374 h 2.541 l -1.595,11.374 z m 1.848,-13.365 0.352,-2.53 h 2.618 l -0.352,2.53 z m 4.088,13.365 1.683,-11.374 h 2.563 l -0.209,1.518 c 0.249,-0.2933 0.535,-0.5647 0.858,-0.814 0.323,-0.2493 0.7,-0.451 1.133,-0.605 0.433,-0.154 0.939,-0.231 1.518,-0.231 0.682,0 1.287,0.1577 1.815,0.473 0.535,0.3153 0.935,0.77 1.199,1.364 0.271,0.594 0.345,1.3053 0.22,2.134 l -1.111,7.535 h -2.64 l 1.067,-7.227 c 0.11,-0.6893 -0.007,-1.2173 -0.352,-1.584 -0.337,-0.374 -0.796,-0.561 -1.375,-0.561 -0.403,0 -0.796,0.0733 -1.177,0.22 -0.381,0.1393 -0.704,0.3483 -0.968,0.627 -0.264,0.2787 -0.425,0.6233 -0.484,1.034 l -1.1,7.491 z m 17.341,0.22 c -1.056,0 -1.951,-0.231 -2.684,-0.693 -0.733,-0.4693 -1.261,-1.1367 -1.584,-2.002 -0.323,-0.8653 -0.396,-1.8957 -0.22,-3.091 0.169,-1.166 0.524,-2.2 1.067,-3.102 0.543,-0.9093 1.239,-1.6243 2.09,-2.145 0.851,-0.5207 1.822,-0.781 2.915,-0.781 1.085,0 1.962,0.2383 2.629,0.715 0.667,0.4767 1.129,1.144 1.386,2.002 0.257,0.8507 0.301,1.848 0.132,2.992 l -0.132,0.814 h -7.535 c -0.103,0.6453 -0.092,1.2173 0.033,1.716 0.132,0.4987 0.378,0.891 0.737,1.177 0.359,0.2787 0.829,0.418 1.408,0.418 0.601,0 1.14,-0.1393 1.617,-0.418 0.484,-0.286 0.843,-0.7187 1.078,-1.298 h 2.398 c -0.242,0.792 -0.645,1.463 -1.21,2.013 -0.557,0.55 -1.199,0.968 -1.925,1.254 -0.726,0.286 -1.459,0.429 -2.2,0.429 z m -1.705,-6.952 h 5.071 c 0.081,-0.55 0.062,-1.045 -0.055,-1.485 -0.117,-0.4473 -0.345,-0.7993 -0.682,-1.056 -0.33,-0.264 -0.777,-0.396 -1.342,-0.396 -0.557,0 -1.049,0.143 -1.474,0.429 -0.425,0.286 -0.766,0.6563 -1.023,1.111 -0.257,0.4473 -0.422,0.913 -0.495,1.397 z"
     fill="#000000"
     id="path4" />
</svg>
